<svg xmlns="http://www.w3.org/2000/svg" version="1.1" xmlns:xlink="http://www.w3.org/1999/xlink" xmlns:svgjs="http://svgjs.dev/svgjs" width="100%" height="100%" viewBox="0 0 1000 600"><rect width="1000" height="600" x="0" y="0" fill="#3ed1fa"/><g><circle r="166.66666666666666" cx="336.89940897623694" cy="359.1216661255757" fill="#ffffff" transform="matrix(0.7342886256253823,0,0,0.7342886256253822,0,36.30103422391056)"/><path d="M255.78965686146813 415.6559450458024L255.78965686146813 302.4661358315544Q255.78965686146813 300.434601618494 246.8448420427692 298.03921053145257Q237.86970581790513 295.6438194444112 237.86970581790513 293.82453507450634L237.86970581790513 293.82453507450634Q237.86970581790513 284.1216851016803 259.94368950608424 284.1216851016803L259.94368950608424 284.1216851016803L269.31300401109434 284.3339349448359Q271.13228838099917 284.3339349448359 274.3463574344978 287.09318290585827Q277.5301050818313 289.88275227304575 279.22810382707587 292.8542500772237L279.22810382707587 292.8542500772237L335.41366945097127 394.0367824500995Q352.06012143560076 367.0507309631773 389.35545101865057 304.164134576799L389.35545101865057 304.164134576799L389.35545101865057 304.2550987952942Q389.90123632962207 303.3151352041767 391.8721277303523 299.4643166212114Q393.84301913108266 295.6438194444112 395.0558753776859 293.82453507450634Q396.29905303045416 292.0052507046014 398.4215514620099 289.33696696207426L398.4215514620099 289.33696696207426Q402.575584106626 284.3339349448359 408.63986533964226 284.3339349448359L408.63986533964226 284.3339349448359L416.43246672406804 284.2429707263407Q435.92913088821524 284.2429707263407 435.92913088821524 293.82453507450634L435.92913088821524 293.82453507450634Q435.92913088821524 297.12956834650015 426.7720662263607 298.1301747499478Q417.6150015645062 299.1611025595606 417.6150015645062 302.4661358315544L417.6150015645062 302.4661358315544L417.6150015645062 415.6559450458024Q417.6150015645062 417.6874792588628 422.19353389543346 419.0216211301264Q426.7720662263607 420.35576300138996 431.350598557288 421.5382978418281Q435.92913088821524 422.69051127610123 435.92913088821524 424.41883142751084L435.92913088821524 424.41883142751084Q435.92913088821524 434.1216814003368 414.82543219731883 434.1216814003368L414.82543219731883 434.1216814003368L406.4264026895913 433.87911015101616L397.5725520893876 434.1216814003368Q376.6811032416467 434.1216814003368 376.6811032416467 424.41883142751084L376.6811032416467 424.41883142751084Q376.6811032416467 421.9627975281392 381.13834994791364 421.0531553431868Q385.6259180603456 420.1435131582344 390.05284336044747 419.23387097328197Q394.4797686605493 418.32422878832955 394.4797686605493 415.6559450458024L394.4797686605493 415.6559450458024L394.4797686605493 320.5680153121079Q392.44823444748886 324.08529842725727 376.1353179306752 353.83059787520193L376.1353179306752 353.83059787520193Q348.6338025389466 403.73963242292547 338.7187027229651 415.4436952026468L338.7187027229651 415.4436952026468L338.7187027229651 415.3527309841516Q335.74720491878713 418.32422878832955 333.1698853947553 418.32422878832955Q330.6228872768884 418.32422878832955 329.01585275013906 417.8390862896882Q327.40881822338986 417.38426519721196 326.1959619767865 416.08044473211356Q324.9831057301833 414.8069456731801 324.3463562007166 414.018589112888Q323.6792852650848 413.1999111464308 322.61803604930697 411.1986983395355Q321.55678683352915 409.16716412647503 321.132287147218 408.5304145970083L321.132287147218 408.5304145970083L274.5586072776533 331.99918543634345L274.5586072776533 415.6559450458024Q274.5586072776533 417.6874792588628 279.1371396085806 419.0216211301264Q283.71567193950784 420.35576300138996 288.3548470827653 421.47765502949795Q292.9940222260227 422.599547057606 292.9940222260227 424.41883142751084L292.9940222260227 424.41883142751084Q292.9940222260227 434.0003957756765 273.16382259405964 434.0003957756765L273.16382259405964 434.0003957756765L265.37122120963375 433.87911015101616L257.2754057635571 434.1216814003368Q237.86970581790513 434.1216814003368 237.86970581790513 424.41883142751084L237.86970581790513 424.41883142751084Q237.86970581790513 421.84151190347893 242.35727393033716 420.9925125308567Q246.8448420427692 420.1435131582344 251.3020887490361 419.23387097328197Q255.78965686146813 418.32422878832955 255.78965686146813 415.6559450458024L255.78965686146813 415.6559450458024Z " fill="#3ed1fa" transform="matrix(0.7342886256253823,0,0,0.7342886256253822,0,36.30103422391056)"/><path d="M604.8193657237728 415.6559450458024L604.8193657237728 302.4661358315544Q604.8193657237728 300.434601618494 595.8745509050738 298.03921053145257Q586.8994146802097 295.6438194444112 586.8994146802097 293.82453507450634L586.8994146802097 293.82453507450634Q586.8994146802097 284.1216851016803 608.9733983683889 284.1216851016803L608.9733983683889 284.1216851016803L618.3427128733989 284.3339349448359Q620.1619972433037 284.3339349448359 623.3760662968024 287.09318290585827Q626.5598139441358 289.88275227304575 628.2578126893804 292.8542500772237L628.2578126893804 292.8542500772237L684.4433783132757 394.0367824500995Q701.0898302979055 367.0507309631773 738.3851598809553 304.164134576799L738.3851598809553 304.164134576799L738.3851598809553 304.2550987952942Q738.9309451919265 303.3151352041767 740.9018365926569 299.4643166212114Q742.8727279933872 295.6438194444112 744.0855842399905 293.82453507450634Q745.3287618927587 292.0052507046014 747.4512603243144 289.33696696207426L747.4512603243144 289.33696696207426Q751.6052929689305 284.3339349448359 757.6695742019468 284.3339349448359L757.6695742019468 284.3339349448359L765.4621755863726 284.2429707263407Q784.9588397505198 284.2429707263407 784.9588397505198 293.82453507450634L784.9588397505198 293.82453507450634Q784.9588397505198 297.12956834650015 775.8017750886653 298.1301747499478Q766.6447104268108 299.1611025595606 766.6447104268108 302.4661358315544L766.6447104268108 302.4661358315544L766.6447104268108 415.6559450458024Q766.6447104268108 417.6874792588628 771.2232427577381 419.0216211301264Q775.8017750886653 420.35576300138996 780.3803074195927 421.5382978418281Q784.9588397505198 422.69051127610123 784.9588397505198 424.41883142751084L784.9588397505198 424.41883142751084Q784.9588397505198 434.1216814003368 763.8551410596234 434.1216814003368L763.8551410596234 434.1216814003368L755.4561115518958 433.87911015101616L746.6022609516921 434.1216814003368Q725.7108121039513 434.1216814003368 725.7108121039513 424.41883142751084L725.7108121039513 424.41883142751084Q725.7108121039513 421.9627975281392 730.1680588102182 421.0531553431868Q734.6556269226502 420.1435131582344 739.082552222752 419.23387097328197Q743.5094775228539 418.32422878832955 743.5094775228539 415.6559450458024L743.5094775228539 415.6559450458024L743.5094775228539 320.5680153121079Q741.4779433097934 324.08529842725727 725.1650267929798 353.83059787520193L725.1650267929798 353.83059787520193Q697.6635114012512 403.73963242292547 687.7484115852698 415.4436952026468L687.7484115852698 415.4436952026468L687.7484115852698 415.3527309841516Q684.7769137810918 418.32422878832955 682.1995942570597 418.32422878832955Q679.6525961391931 418.32422878832955 678.0455616124436 417.8390862896882Q676.4385270856944 417.38426519721196 675.2256708390912 416.08044473211356Q674.0128145924879 414.8069456731801 673.3760650630212 414.018589112888Q672.7089941273894 413.1999111464308 671.6477449116115 411.1986983395355Q670.5864956958337 409.16716412647503 670.1619960095227 408.5304145970083L670.1619960095227 408.5304145970083L623.5883161399579 331.99918543634345L623.5883161399579 415.6559450458024Q623.5883161399579 417.6874792588628 628.1668484708852 419.0216211301264Q632.7453808018124 420.35576300138996 637.3845559450699 421.47765502949795Q642.0237310883273 422.599547057606 642.0237310883273 424.41883142751084L642.0237310883273 424.41883142751084Q642.0237310883273 434.0003957756765 622.1935314563642 434.0003957756765L622.1935314563642 434.0003957756765L614.4009300719383 433.87911015101616L606.3051146258617 434.1216814003368Q586.8994146802097 434.1216814003368 586.8994146802097 424.41883142751084L586.8994146802097 424.41883142751084Q586.8994146802097 421.84151190347893 591.3869827926417 420.9925125308567Q595.8745509050738 420.1435131582344 600.3317976113407 419.23387097328197Q604.8193657237728 418.32422878832955 604.8193657237728 415.6559450458024L604.8193657237728 415.6559450458024ZM950.938217098174 434.0003957756765L950.938217098174 434.0003957756765L939.6586540047639 434.1216814003368Q924.1947368605726 434.1216814003368 920.5561681207629 429.5128276632445L920.5561681207629 429.5128276632445Q918.9794550001785 427.5116148563491 918.9794550001785 424.843331113822Q918.9794550001785 422.17504737129485 920.9503464009089 421.1441195616821Q922.9212378016392 420.1435131582344 926.1656282613027 419.71901347192323Q929.4100187209666 419.2945137856121 930.6835177799 418.6577642561454L930.6835177799 418.6577642561454Q934.837550424516 416.71719426158023 934.837550424516 411.07741271487515L934.837550424516 411.07741271487515L934.837550424516 363.44248362953266L843.4791536491265 363.44248362953266L843.4791536491265 411.07741271487515Q843.4791536491265 415.7772306704627 845.9958303608281 417.748122071193Q848.51250707253 419.71901347192323 852.1207544061746 420.0828703459042Q855.7593231459845 420.47704862605025 856.6992867371019 420.78026268770105L856.6992867371019 420.78026268770105Q859.5798203227847 421.41701221716784 859.5798203227847 424.843331113822Q859.5798203227847 428.2393286043111 858.0031072022003 430.2102200050413Q856.3960726754511 432.1811114057716 852.1207544061746 432.93914655989863L852.1207544061746 432.93914655989863Q846.6932227026251 434.0003957756765 831.7750908694051 434.0003957756765Q816.8569590361852 434.0003957756765 812.7938906100643 433.1513964030542L812.7938906100643 433.1513964030542Q804.5767895393273 431.02889797149857 804.2735754776764 424.41883142751084L804.2735754776764 424.41883142751084Q804.2735754776764 420.6892984692059 811.520391551131 419.71901347192323L811.520391551131 419.71901347192323Q814.9163890416199 419.1732281609518 816.0989238820581 418.6577642561454L816.0989238820581 418.6577642561454Q820.2529565266742 416.92944410473575 820.2529565266742 411.07741271487515L820.2529565266742 411.07741271487515L820.2529565266742 307.1356323809769Q820.2529565266742 299.0398169349003 812.2481052990928 298.40306740543355L812.2481052990928 298.40306740543355Q805.54707453661 297.88760350062716 804.9103250071433 296.37153319237314Q804.2735754776764 294.88578429028416 804.2735754776764 292.42975039091255Q804.2735754776764 289.973716491541 805.8502885982608 288.0028250908107Q807.45732312501 286.03193369008045 811.6113557696261 285.3042199421185L811.6113557696261 285.3042199421185Q816.9479232546804 284.3339349448359 831.8054122755703 284.3339349448359Q846.6932227026251 284.3339349448359 850.8472553472412 285.18293431745815L850.8472553472412 285.18293431745815Q859.3675704796291 287.2144685305186 859.5798203227847 293.9154992930015L859.5798203227847 293.9154992930015Q859.5798203227847 297.7663178759668 852.1207544061746 298.6153172485891L852.1207544061746 298.6153172485891Q848.8157211341808 298.948852716405 847.6635076999077 299.4643166212114L847.6635076999077 299.4643166212114Q843.4791536491265 301.19263677262103 843.4791536491265 307.1356323809769L843.4791536491265 307.1356323809769L843.4791536491265 351.1623141326748L934.837550424516 351.1623141326748L934.837550424516 307.1356323809769Q934.837550424516 299.25206677805585 926.8630206030997 298.5243530300939L926.8630206030997 298.5243530300939Q921.405167493385 297.97856771912245 920.1923112467817 296.705068660189Q918.9794550001785 295.4315696012556 918.9794550001785 293.24842835736973Q918.9794550001785 291.0652871134839 919.919418591296 289.4582525867346Q920.8897035885788 287.8512180599853 923.0122020201344 286.94157587503287Q925.13470045169 286.03193369008045 927.1055918524204 285.4558269729439Q929.1068046593156 284.87972025580734 932.8363376176206 284.6674704126518L932.8363376176206 284.6674704126518Q938.2638693211701 284.3339349448359 941.9934022794752 284.3339349448359L941.9934022794752 284.3339349448359L946.026149299431 284.3339349448359Q961.3991022251272 284.3339349448359 965.7653847128987 285.94096947158516L965.7653847128987 285.94096947158516Q974.1947356267914 288.9124672757631 974.1947356267914 293.9154992930015L974.1947356267914 293.9154992930015Q974.1947356267914 296.28056897387785 972.1632014137309 297.1902111588303Q970.1316672006704 298.09985334378274 966.8266339286766 298.4637102177637Q963.5216006566828 298.8275670917447 962.3390658162447 299.37335240271614L962.3390658162447 299.37335240271614Q958.1850331716286 301.28360099111626 958.1850331716286 307.1356323809769L958.1850331716286 307.1356323809769L958.1850331716286 411.07741271487515Q958.1850331716286 415.7772306704627 960.7017098833302 417.748122071193Q963.218386595032 419.71901347192323 966.7659911163465 420.0828703459042Q970.3439170438261 420.47704862605025 971.405166259604 420.78026268770105L971.405166259604 420.78026268770105Q974.1947356267914 421.41701221716784 974.1947356267914 424.2369029905204Q974.1947356267914 427.0567937638729 973.3760576603341 428.72447110295235Q972.587701100042 430.3618270358667 970.5561668869817 431.3927548454795Q968.5246326739212 432.3933612489272 966.9479195533369 432.93914655989863Q965.3408850265877 433.454610464705 961.8236019114382 433.6668603078606L961.8236019114382 433.6668603078606Q956.487034426384 434.0003957756765 950.938217098174 434.0003957756765ZM1011.4900652098412 415.6559450458024L1011.4900652098412 302.4661358315544Q1011.4900652098412 300.434601618494 1002.5452503911423 298.03921053145257Q993.5701141662781 295.6438194444112 993.5701141662781 293.82453507450634L993.5701141662781 293.82453507450634Q993.5701141662781 284.1216851016803 1015.6440978544573 284.1216851016803L1015.6440978544573 284.1216851016803L1025.0437337656326 284.3339349448359Q1026.8326967293724 284.3339349448359 1030.0467657828708 287.09318290585827Q1033.2305134302042 289.88275227304575 1034.9588335816138 292.8542500772237L1034.9588335816138 292.8542500772237L1091.1140777993442 394.0367824500995Q1107.7605297839737 367.0507309631773 1145.0558593670235 304.164134576799L1145.0558593670235 304.164134576799L1145.0558593670235 304.2550987952942Q1145.601644677995 303.3151352041767 1147.5725360787255 299.4643166212114Q1149.5434274794557 295.6438194444112 1150.7562837260589 293.82453507450634Q1151.9994613788272 292.0052507046014 1154.121959810383 289.33696696207426L1154.121959810383 289.33696696207426Q1158.2759924549991 284.3339349448359 1164.3402736880153 284.3339349448359L1164.3402736880153 284.3339349448359L1172.132875072441 284.2429707263407Q1191.6295392365882 284.2429707263407 1191.6295392365882 293.82453507450634L1191.6295392365882 293.82453507450634Q1191.6295392365882 297.12956834650015 1182.472474574734 298.1301747499478Q1173.3154099128792 299.1611025595606 1173.3154099128792 302.4661358315544L1173.3154099128792 302.4661358315544L1173.3154099128792 415.6559450458024Q1173.3154099128792 417.6874792588628 1177.8939422438066 419.0216211301264Q1182.472474574734 420.35576300138996 1187.0510069056609 421.5382978418281Q1191.6295392365882 422.69051127610123 1191.6295392365882 424.41883142751084L1191.6295392365882 424.41883142751084Q1191.6295392365882 434.1216814003368 1170.5258405456916 434.1216814003368L1170.5258405456916 434.1216814003368L1162.1268110379642 433.87911015101616L1153.2729604377605 434.1216814003368Q1132.3815115900197 434.1216814003368 1132.3815115900197 424.41883142751084L1132.3815115900197 424.41883142751084Q1132.3815115900197 421.9627975281392 1136.8387582962864 421.0531553431868Q1141.3263264087186 420.1435131582344 1145.7532517088207 419.23387097328197Q1150.1801770089223 418.32422878832955 1150.1801770089223 415.6559450458024L1150.1801770089223 415.6559450458024L1150.1801770089223 320.5680153121079Q1148.148642795862 324.08529842725727 1131.8357262790482 353.83059787520193L1131.8357262790482 353.83059787520193Q1104.3342108873194 403.73963242292547 1094.4191110713382 415.4436952026468L1094.4191110713382 415.4436952026468L1094.4191110713382 415.3527309841516Q1091.4476132671602 418.32422878832955 1088.870293743128 418.32422878832955Q1086.3232956252614 418.32422878832955 1084.716261098512 417.8390862896882Q1083.139547977928 417.38426519721196 1081.8963703251598 416.08044473211356Q1080.6835140785565 414.8069456731801 1080.0467645490894 414.018589112888Q1079.4100150196227 413.1999111464308 1078.3184443976802 411.1986983395355Q1077.2571951819023 409.16716412647503 1076.832695495591 408.5304145970083L1076.832695495591 408.5304145970083L1030.2590156260262 331.99918543634345L1030.2590156260262 415.6559450458024Q1030.2590156260262 417.6874792588628 1034.8375479569536 419.0216211301264Q1039.416080287881 420.35576300138996 1044.0552554311384 421.47765502949795Q1048.694430574396 422.599547057606 1048.694430574396 424.41883142751084L1048.694430574396 424.41883142751084Q1048.694430574396 434.0003957756765 1028.8642309424326 434.0003957756765L1028.8642309424326 434.0003957756765L1021.0716295580067 433.87911015101616L1012.9758141119302 434.1216814003368Q993.5701141662781 434.1216814003368 993.5701141662781 424.41883142751084L993.5701141662781 424.41883142751084Q993.5701141662781 421.84151190347893 998.0576822787103 420.9925125308567Q1002.5452503911423 420.1435131582344 1007.0024970974092 419.23387097328197Q1011.4900652098412 418.32422878832955 1011.4900652098412 415.6559450458024L1011.4900652098412 415.6559450458024Z " fill="#ffffff" transform="matrix(0.7342886256253823,0,0,0.7342886256253822,0,36.30103422391056)"/></g></svg>